<?xml version="1.0" encoding="UTF-8"?>
<svg width="320px" height="320px" viewBox="0 0 320 320" version="1.1" xmlns="http://www.w3.org/2000/svg" xmlns:xlink="http://www.w3.org/1999/xlink">
    <!-- Generator: Sketch 53 (72520) - https://sketchapp.com -->
    <title>logo</title>
    <desc>Created with Sketch.</desc>
    <defs>
        <polygon id="path-1" points="0 0.0260391726 53.9881932 0.0260391726 53.9881932 69.9753107 0 69.9753107"></polygon>
        <polygon id="path-3" points="0.00463333333 0.238296895 73.7652855 0.238296895 73.7652855 73.8927536 0.00463333333 73.8927536"></polygon>
        <polygon id="path-5" points="0.138568 0.0736842105 13.5012679 0.0736842105 13.5012679 19.9941053 0.138568 19.9941053"></polygon>
    </defs>
    <g id="Page-1" stroke="none" stroke-width="1" fill="none" fill-rule="evenodd">
        <g id="BBB---Placeholder-5" transform="translate(-777.000000, -268.000000)">
            <g id="logo" transform="translate(777.000000, 268.000000)">
                <circle id="Oval" fill="#161616" cx="160" cy="160" r="160"></circle>
                <g id="Group-46" transform="translate(21.000000, 39.000000)">
                    <g id="Group-3" transform="translate(0.000000, 124.000000)">
                        <mask id="mask-2" fill="white">
                            <use xlink:href="#path-1"></use>
                        </mask>
                        <g id="Clip-2"></g>
                        <path d="M41.3338,53.4603457 C43.1878,51.6796242 44.4808,49.5575728 45.2138,47.0911886 C45.9478,44.6258053 46.0098,42.1353978 45.3998,39.6199661 C44.9008,37.5559709 43.9928,35.7101865 42.6778,34.0846151 C41.3628,32.4570417 39.7998,31.1467751 37.9908,30.1518132 C36.7428,33.7322745 34.7098,36.8212606 31.8948,39.4157687 C29.0778,42.0112778 25.7688,43.767976 21.9688,44.6908682 C20.7438,44.9881556 19.5918,45.1663278 18.5148,45.222382 L22.0998,60.0236905 C22.7748,59.9966643 24.4668,59.6533324 27.1728,58.9966977 L34.6878,57.0708359 C37.2638,56.4462321 39.4788,55.2420681 41.3338,53.4603457 L41.3338,53.4603457 Z M16.5708,37.1936206 C17.5998,37.2166428 18.7568,37.0725035 20.0468,36.7592006 C22.5598,36.1496113 24.7418,34.954456 26.5968,33.1717326 C28.4498,31.3910112 29.7438,29.2689598 30.4768,26.8025755 C31.2108,24.3371922 31.2648,21.8157548 30.6398,19.2342592 C30.0308,16.7188275 28.8368,14.5347162 27.0558,12.6789222 C25.2768,10.8231282 23.1548,9.528877 20.6928,8.79516772 C18.2288,8.06245941 15.7418,7.99839748 13.2288,8.60798678 C11.9388,8.92128965 10.8438,9.3246796 9.9398,9.81615471 L16.5708,37.1936206 Z M48.1848,27.8816186 C50.7058,30.685329 52.4188,33.9574922 53.3248,37.6961063 C54.2938,41.695973 54.2008,45.6097565 53.0488,49.4404596 C51.8948,53.2721637 49.8658,56.5803618 46.9598,59.3670557 C44.0538,62.1567525 40.6028,64.0335668 36.6088,65.0025035 L27.5478,67.3047291 C25.4848,67.8052129 24.3178,68.0544538 24.0448,68.0514509 L16.1198,69.9753107 L-0.0002,3.41997151 L11.3078,0.676319213 C15.2368,-0.278603914 19.1318,-0.181510053 22.9918,0.96559886 C26.8498,2.11170681 30.1708,4.13966724 32.9578,7.04747823 C35.7418,9.95629018 37.6118,13.3785985 38.5638,17.3114004 C38.9708,18.9890221 39.1918,20.4714552 39.2318,21.7576986 C42.6798,23.0389372 45.6648,25.0799102 48.1848,27.8816186 L48.1848,27.8816186 Z" id="Fill-1" fill="#FEFEFE" mask="url(#mask-2)"></path>
                    </g>
                    <path d="M98.5296561,161.389797 C101.442412,158.297687 103.439359,154.583513 104.517489,150.247277 C105.594618,145.913063 105.594618,141.49793 104.514484,137.000867 C103.434349,132.502792 101.431391,128.579241 98.5076125,125.223134 C95.5828324,121.869049 92.121993,119.489024 88.130104,118.086094 C84.1352092,116.683165 80.105245,116.478845 76.0382075,117.473134 C71.9711701,118.468436 68.4802712,120.51467 65.5675149,123.607792 C62.6527546,126.701925 60.6568102,130.41711 59.5796815,134.750312 C58.5015509,139.085538 58.5025528,143.499659 59.5826874,147.997734 C60.6628221,152.493785 62.6647784,156.42037 65.5895585,159.774455 C68.5133366,163.132586 71.973174,165.509576 75.9670669,166.911495 C79.9599579,168.315436 83.990924,168.519756 88.0589634,167.523443 C92.1260009,166.529153 95.6158978,164.48393 98.5296561,161.389797 M90.5579019,109.625021 C95.9976522,111.503349 100.724995,114.676378 104.736923,119.144108 C108.748852,123.613861 111.483255,128.87763 112.939133,134.93946 C114.39501,140.999268 114.351925,146.944778 112.812883,152.771944 C111.273842,158.600121 108.51038,163.60495 104.526507,167.788452 C100.541632,171.971955 95.7411453,174.751516 90.1250465,176.126124 C84.5089478,177.500733 78.9639896,177.25393 73.491174,175.383694 C68.0173564,173.51447 63.2749843,170.34751 59.2640578,165.877757 C55.2501253,161.410027 52.5167234,156.143224 51.0608462,150.082404 C49.6059711,144.022597 49.6470522,138.07911 51.1870957,132.249921 C52.7261373,126.424778 55.5046282,121.413881 59.5225686,117.221275 C63.5395071,113.02968 68.3560257,110.246073 73.9731264,108.871465 C79.5892252,107.496856 85.1171497,107.748716 90.5579019,109.625021" id="Fill-4" fill="#FEFEFE"></path>
                    <path d="M164.979738,140.61718 C165.150331,144.529476 164.243808,148.244671 162.257195,151.766727 C159.559448,156.540718 155.111141,159.679469 148.913265,161.180007 C144.24775,162.309125 140.213031,162.272479 136.809109,161.068086 C133.405186,159.867655 130.569577,158.086818 128.307238,155.729536 C126.248222,153.660476 124.641476,151.363612 123.48799,148.838943 C122.333513,146.316256 121.516255,144.062972 121.036214,142.085034 L111,100.326479 L118.668743,98.4693769 L128.751573,140.419089 C130.059782,144.697853 131.807366,147.990124 133.991351,150.298874 C137.395273,153.730799 141.748366,154.805442 147.053605,153.520822 C151.079397,152.546215 153.843596,150.696046 155.346202,147.966353 C157.333807,144.445287 157.606557,139.716857 156.165444,133.782053 L145.9874,91.8561118 L153.655151,90 L163.763768,131.6397 C164.402499,133.713712 164.807161,136.706866 164.979738,140.61718" id="Fill-6" fill="#FEFEFE"></path>
                    <polygon id="Fill-8" fill="#FEFEFE" points="182.708016 145.082572 204.117077 139.749701 206 147.731382 176.824003 155 161 87.9357466 168.767915 86"></polygon>
                    <polygon id="Fill-10" fill="#FEFEFE" points="214.76846 124.660434 217.708016 137.098677 239.117077 131.77346 241 139.743186 211.824003 147 196 80.0436449 224.324221 73 226.207144 80.9687203 205.650839 86.0807675 212.885537 116.690708 234.293618 111.366497 236.177521 119.335218"></polygon>
                    <path d="M264.303118,126.794692 C266.63153,123.994973 268.266137,121.717775 269.207944,119.964094 C270.148747,118.210413 270.650776,116.834937 270.714032,115.833687 C270.778291,114.834427 270.637723,113.629144 270.292327,112.217839 L270.010187,111.06232 C269.680855,109.717699 269.204932,108.609954 268.581411,107.741075 C267.957891,106.872197 266.694786,106.055073 264.797115,105.289704 C262.896433,104.524334 260.051935,103.952049 256.26061,103.572848 C248.531368,102.782596 242.838357,100.993085 239.17756,98.2063046 C235.516763,95.4205193 233.254619,92.2644903 232.392133,88.7362271 C231.779657,86.2360868 231.885083,83.5120088 232.705399,80.5649884 C233.524711,77.6179679 235.097066,74.9486303 237.424474,72.5559801 C239.749873,70.1643252 242.757028,68.5251011 246.443931,67.6383077 C250.066574,66.7674387 253.37595,66.7883396 256.373065,67.6970291 C259.369175,68.6067139 261.722688,69.6885819 263.433604,70.9396474 C265.143515,72.1946939 266.29517,73.1899727 266.886561,73.9294648 L260.697545,79.2870504 C259.928436,78.3863231 258.423352,77.3392899 256.179282,76.1459506 C253.935211,74.9536066 251.324659,74.715735 248.349634,75.4303452 C246.021222,75.9896918 244.213917,77.0028856 242.927718,78.4639549 C241.642523,79.9290052 240.832248,81.4468054 240.497897,83.0213364 C240.163545,84.5968627 240.106314,85.8320036 240.326203,86.7287498 C240.906549,89.1014944 242.64357,91.0263635 245.539274,92.5023619 C248.433975,93.9813462 252.310644,94.9835919 257.165267,95.512085 C264.119376,96.2187329 269.064364,97.6798021 272.003243,99.8913115 C274.942122,102.104812 276.898028,105.200129 277.869956,109.174277 L278.2023,110.112825 C278.815779,112.342249 279.074826,114.383566 278.981449,116.239761 C278.887067,118.095956 278.209328,120.296517 276.948231,122.839454 C275.686129,125.383387 273.57359,128.435907 270.610614,132 L264.303118,126.794692 Z" id="Fill-12" fill="#FEFEFE"></path>
                    <g id="Group-16" transform="translate(156.000000, 164.000000)">
                        <mask id="mask-4" fill="white">
                            <use xlink:href="#path-3"></use>
                        </mask>
                        <g id="Clip-15"></g>
                        <path d="M29.4625609,17.436242 C40.2239812,12.8327567 53.5840971,13.3467136 66.6098072,19.0615931 C69.8128507,24.3158223 71.6581261,30.4792826 71.6581261,37.0671848 C71.6581261,44.4778205 69.3132565,51.3493545 65.3366478,56.9938289 C48.2698652,56.9767305 33.8591913,40.2163026 29.4625609,17.436242 M54.3969449,67.0456602 C36.8295609,66.3456327 22.0149812,49.6153784 16.8377348,26.7085886 C18.7716478,24.4204241 20.9936333,22.3877294 23.5198072,20.6617996 C25.0901043,19.5896311 26.7500464,18.6633016 28.4764667,17.8626955 C32.9647565,40.6809761 47.4056478,57.5268958 64.5912855,58.0187255 C61.8274014,61.6556498 58.3604594,64.7293337 54.3969449,67.0456602 M36.8849594,71.7889498 C24.8523942,71.7889498 14.2289667,65.6526457 7.98403913,56.3501255 C7.50156812,44.8801351 10.2926478,35.0515885 16.0027275,27.7304678 C21.2837203,49.9643864 35.5805754,66.3285343 52.6805971,67.9840591 C47.9374739,70.4110222 42.5708652,71.7889498 36.8849594,71.7889498 M2.11078551,37.0671848 C2.11078551,26.7367506 6.65648841,17.4513288 13.850242,11.0846996 C13.9942783,16.4032991 14.6217928,21.5468918 15.6894739,26.4209337 C9.78801739,33.6143194 6.72598841,43.268865 6.86599565,54.5598253 C3.84929275,49.41925 2.11078551,43.4428661 2.11078551,37.0671848 M27.0401333,3.76860786 C27.0904957,8.26447396 27.5095101,12.6326052 28.2679667,16.8076253 C26.4055681,17.6555034 24.6136768,18.6401685 22.9245246,19.7938057 C20.5444014,21.4191569 18.4301913,23.3130531 16.5587275,25.4211818 C15.5514812,20.5773135 14.9753362,15.4729465 14.8877058,10.1955842 C18.4251551,7.30193618 22.5447928,5.09524038 27.0401333,3.76860786 M36.8849594,2.34240246 C48.7855754,2.34240246 59.3042493,8.34594267 65.5763725,17.4754676 C52.8276551,12.2604641 39.8442493,11.926543 29.2550681,16.380166 C28.5207855,12.2473889 28.1229232,7.92150073 28.0876696,3.47089503 C30.8988942,2.73667081 33.8471043,2.34240246 36.8849594,2.34240246 M36.8849594,0.238296895 C16.5496623,0.238296895 0.00463333333,16.7593476 0.00463333333,37.0671848 C0.00463333333,57.3730105 16.5496623,73.8930554 36.8849594,73.8930554 C57.2212638,73.8930554 73.7652855,57.3730105 73.7652855,37.0671848 C73.7652855,16.7593476 57.2212638,0.238296895 36.8849594,0.238296895" id="Fill-14" fill="#FEFEFE" mask="url(#mask-4)"></path>
                    </g>
                    <path d="M54.1912629,55.9091941 C54.0678196,56.5495317 53.7801253,57.1395282 53.333281,57.6620678 L51.9672434,59.3041913 C51.5663077,59.7733695 51.3286029,60.0351427 51.1867961,60.1791179 L48.4608419,57.9137728 C48.6240727,57.7627498 48.7883237,57.5915904 48.9495141,57.4023082 C49.6748709,56.5525521 50.157422,55.5849981 50.3828845,54.5298507 C50.586923,53.5733716 50.5767211,52.6229335 50.3543191,51.7027 C50.7827999,51.6684681 51.2092404,51.7057204 51.6305798,51.8114365 C52.1365953,51.9342686 52.5987425,52.1678508 53.0037589,52.5041287 C53.497532,52.9149113 53.8535792,53.4283895 54.0616984,54.0314747 C54.2708379,54.6365736 54.3147062,55.2688566 54.1912629,55.9091941 M47.7161014,53.9539496 C47.591638,54.5932803 47.3100648,55.1752223 46.8785234,55.680646 C46.7091715,55.8799963 46.5408397,56.0471285 46.3776089,56.1820424 L40.9073371,51.6342362 C41.0144573,51.4499881 41.1542236,51.2576855 41.3215352,51.0623624 C41.7530766,50.5559319 42.2866372,50.1834085 42.9048739,49.9538536 C43.5241307,49.7253054 44.161751,49.6598621 44.8024318,49.7615509 C45.4420925,49.8622329 46.0164608,50.1209857 46.5081936,50.5297546 C47.0152292,50.9506054 47.3773975,51.4701245 47.586537,52.0732097 C47.7946563,52.6803222 47.8385245,53.3126052 47.7161014,53.9539496 M54.7972572,50.4028953 C53.9780427,49.7222849 53.0333445,49.2752568 51.9896876,49.0769133 C51.0103028,48.8876311 50.0309181,48.9248835 49.0770382,49.1806158 C48.8689189,48.9369653 48.6087698,48.6852603 48.3006717,48.4285212 C47.4365687,47.7116653 46.430659,47.2575895 45.3115078,47.0793823 C44.1923567,46.9052025 43.080347,47.0179663 42.0030237,47.4146534 C40.9287611,47.8123473 40.0034466,48.4617462 39.2505445,49.3407001 L37,51.9775618 L51.4632683,64 L53.0445666,62.1353693 C53.0863945,62.1051647 53.1649493,62.0497896 53.7536003,61.3581042 L55.4063121,59.3807096 C56.1683958,58.4876603 56.6642094,57.4697652 56.87947,56.3552154 C57.0947306,55.2396588 57.0212767,54.1432318 56.662169,53.0911048 C56.302041,52.037971 55.6746227,51.1328398 54.7972572,50.4028953" id="Fill-17" fill="#FEFEFE"></path>
                    <polygon id="Fill-19" fill="#FEFEFE" points="59.1544182 42.1095679 51.1705634 34 49 35.9695216 56.6401822 43.7280093 61.8294366 49 64 47.0304784"></polygon>
                    <polygon id="Fill-21" fill="#FEFEFE" points="69.2938927 34.6539122 64.3217228 27.8258629 67.6495058 25.2010516 66.0451283 23 57 30.1393618 58.6033773 32.3414545 61.9321605 29.7145609 67.0593669 36.7518871 71.6104378 43 74 41.111302 69.2938927 34.6518299"></polygon>
                    <polygon id="Fill-23" fill="#FEFEFE" points="80.3308697 32.4120677 78.9055756 29.9857739 84.2489209 26.9953397 82.923136 24.7377974 77.5787855 27.7262693 73.7039555 21.1282806 78.8352155 18.2585234 77.5094306 16 70 20.2011283 79.278484 36 87 31.6811381 85.6742151 29.4216336"></polygon>
                    <path d="M100.360259,21.1846669 C99.9020439,20.1324327 99.181245,19.3553517 98.2187851,18.8766053 C97.2542328,18.3978588 95.7927582,18.226518 93.7517154,18.3535118 C92.4105483,18.4331349 91.3068578,18.3404093 90.4688899,18.0904533 C89.6685835,17.8495682 89.1685228,17.4736263 88.9383693,16.940454 C88.8818771,16.8104365 88.8212003,16.5534253 88.853631,16.0676237 C88.8787386,15.6826108 89.0304307,15.2814717 89.3024303,14.8752931 C89.5712914,14.4771777 90.0002137,14.1576775 90.5755974,13.9268713 C91.3256885,13.625513 91.9920874,13.5741108 92.6103634,13.7726646 C93.2527008,13.9772657 93.6910385,14.1717879 93.9180536,14.3542155 L94.1168225,14.5144695 L95.9664195,12.4422535 L95.7728813,12.2759521 C95.557374,12.0915088 95.1828515,11.8707815 94.6262986,11.6026835 C94.0749764,11.3376091 93.336393,11.1471185 92.4325175,11.0362509 C91.5139959,10.9233675 90.5337513,11.0745506 89.5189838,11.4837528 C88.4832931,11.8979944 87.664156,12.500711 87.0856338,13.2717446 C86.5102502,14.0397547 86.1608353,14.8642064 86.0478509,15.7188947 C85.9338203,16.5745909 86.0237894,17.3486483 86.3156659,18.0219169 C86.7236652,18.9673151 87.533387,19.7514513 88.7249543,20.3511442 C89.9008293,20.9437819 91.631165,21.1735801 93.8626075,21.0334838 C94.9118981,20.9659554 95.7132507,20.9901447 96.2488806,21.1000044 C96.8859872,21.2350613 97.1600791,21.398339 97.2782943,21.5112223 C97.4634632,21.6886105 97.6245706,21.934535 97.757432,22.2439563 L97.8850625,22.5382594 C98.0273392,22.8688464 98.1110314,23.1571021 98.1319544,23.3979871 C98.1518313,23.6257696 98.0723238,23.979538 97.895524,24.4492135 C97.7114013,24.9370309 97.3515249,25.6022364 96.8274027,26.4297118 L96.6861722,26.651447 L99.1226605,28 L99.256568,27.7893516 C99.9459823,26.7018413 100.424074,25.7725693 100.677243,25.0297565 C100.934596,24.2708174 101.039211,23.6187144 100.986904,23.0905815 C100.932504,22.568496 100.767212,22.0081107 100.484751,21.40741 L100.360259,21.1846669 Z" id="Fill-25" fill="#FEFEFE"></path>
                    <g id="Group-29" transform="translate(146.000000, 0.000000)">
                        <mask id="mask-6" fill="white">
                            <use xlink:href="#path-5"></use>
                        </mask>
                        <g id="Clip-28"></g>
                        <path d="M10.017528,15.5572632 C9.637928,16.1056842 9.136648,16.532 8.529288,16.8235789 C7.918808,17.1151579 7.253208,17.2404211 6.552248,17.1898947 L4.358888,17.0635789 C3.727608,17.0193684 3.365688,16.9814737 3.159768,16.952 L3.411448,13.2856842 C3.634008,13.3277895 3.873208,13.3572632 4.132168,13.3762105 C5.277208,13.4635789 6.373368,13.2625263 7.390488,12.7993684 C8.310888,12.3793684 9.097128,11.7856842 9.731528,11.032 C10.016488,11.3688421 10.244248,11.7488421 10.409608,12.1604211 C10.610328,12.6614737 10.693528,13.1909474 10.656088,13.7351579 C10.610328,14.3983158 10.396088,15.0109474 10.017528,15.5572632 L10.017528,15.5572632 Z M4.109288,3.11831579 C4.325608,3.09515789 4.570008,3.09305263 4.836248,3.10989474 C5.517448,3.15726316 6.147688,3.372 6.713448,3.74778947 C7.275048,4.12147368 7.712888,4.61410526 8.014488,5.20989474 C8.314008,5.80463158 8.442968,6.44252632 8.398248,7.10463158 C8.350408,7.78568421 8.135128,8.40884211 7.756568,8.95515789 C7.379048,9.50252632 6.877768,9.92884211 6.268328,10.2214737 C5.660968,10.5130526 5.006808,10.6330526 4.323528,10.5898947 C4.055208,10.5709474 3.813928,10.5341053 3.604888,10.4804211 L4.109288,3.11831579 Z M11.066888,8.41410526 C11.144888,8.09094737 11.198968,7.71936842 11.227048,7.30463158 C11.307128,6.14147368 11.081448,5.02252632 10.556248,3.98147368 C10.032088,2.94147368 9.268728,2.08252632 8.289048,1.43094737 C7.309368,0.780421053 6.212168,0.406736842 5.027608,0.323578947 L1.474968,0.0730526316 L0.138568,19.5362105 L2.644968,19.7077895 C2.713608,19.7298947 2.852968,19.7562105 3.720328,19.8183158 L6.364008,19.9751579 C6.534568,19.9877895 6.703048,19.9941053 6.871528,19.9941053 C7.889688,19.9941053 8.864168,19.7741053 9.772088,19.3383158 C10.829768,18.8309474 11.702328,18.0941053 12.364808,17.1467368 C13.028328,16.1941053 13.404808,15.1130526 13.484888,13.9341053 C13.561848,12.8298947 13.367368,11.7667368 12.906648,10.7762105 C12.472968,9.84357895 11.854168,9.04989474 11.066888,8.41410526 L11.066888,8.41410526 Z" id="Fill-27" fill="#FEFEFE" mask="url(#mask-6)"></path>
                    </g>
                    <path d="M166.58728,14.0064741 L169.96889,6.65530322 L170.03111,14.8005665 C170.039405,14.8693541 170.03111,14.8005665 170.033184,15.0564969 L170.049775,17.2637702 L165.474594,16.4271913 L166.427584,14.3524354 L166.58728,14.0064741 Z M169.033529,2 L161,19.5388195 L163.779122,20.1093521 L164.593156,18.3411057 L170.06533,19.3415609 L170.080885,21.4021547 L173,22 L172.773937,2.76677963 L169.033529,2 Z" id="Fill-30" fill="#FEFEFE"></path>
                    <path d="M189.029277,14.4030442 C188.809643,15.0068132 188.446285,15.5162116 187.947301,15.9190626 C187.448316,16.3259725 186.866337,16.5847306 186.218568,16.6922928 C185.572823,16.7978256 184.928091,16.737956 184.301577,16.5086253 C184.055627,16.4183136 183.840041,16.3208988 183.657856,16.2133366 L186.082941,9.53940565 C186.372413,9.59826045 186.602168,9.65711525 186.769171,9.71901425 C187.391637,9.94327132 187.92301,10.3166949 188.348108,10.823049 C188.773206,11.3334622 189.050532,11.9118628 189.174013,12.5450592 C189.296482,13.1772409 189.247899,13.8023194 189.029277,14.4030442 M191.886545,12.0650882 C191.671972,10.9610534 191.191206,9.96255134 190.456393,9.09799468 C189.720568,8.23343803 188.788388,7.58907949 187.687181,7.1872433 L184.43113,6 L178,23.6970283 L180.594112,24.6447934 L182.729725,18.766417 C182.992881,18.8851413 183.207455,18.975453 183.381542,19.0363373 C183.871418,19.2169606 184.356232,19.3397439 184.822828,19.4026576 L186.740831,27 L189.501946,26.5870017 L187.597101,19.1560763 C188.477662,18.894274 189.271179,18.4488041 189.959433,17.8287992 C190.711452,17.1519691 191.271165,16.3188693 191.623389,15.3518241 C192.012051,14.2782315 192.100107,13.1721672 191.886545,12.0650882" id="Fill-32" fill="#FEFEFE"></path>
                    <path d="M185.34596,180.217531 C184.609305,176.065382 184.209146,171.719217 184.173779,167.24775 C186.994087,166.510085 189.951824,166.113968 193.000505,166.113968 C204.939575,166.113968 215.492237,172.145649 221.784627,181.318977 C208.993705,176.079529 195.969357,175.743032 185.34596,180.217531 M227.886032,201.000505 C227.886032,208.447898 225.533586,215.35063 221.543117,221.022572 C204.421188,221.005394 189.96395,204.165394 185.554123,181.279567 C196.349306,176.654504 209.753602,177.16986 222.821401,182.912537 C226.033784,188.190384 227.886032,194.383745 227.886032,201.000505 M210.569076,231.12152 C192.944928,230.418211 178.082479,213.608526 172.888504,190.595376 C174.828665,188.296486 177.057831,186.253253 179.591157,184.519234 C181.167538,183.44204 182.832844,182.512379 184.564843,181.707009 C189.067635,204.633256 203.555188,221.558138 220.796357,222.051262 C218.023542,225.705234 214.545397,228.792315 210.569076,231.12152 M193.000505,235.887042 C180.92805,235.887042 170.271306,229.720965 164.0062,220.375852 C163.521159,208.852098 166.321257,198.976472 172.050798,191.622045 C177.348855,213.95917 191.691906,230.401032 208.847182,232.064317 C204.088733,234.501645 198.704783,235.887042 193.000505,235.887042 M158.113968,201.000505 C158.113968,190.62266 162.674359,181.293714 169.890347,174.897243 C170.035859,180.239762 170.664391,185.409485 171.736532,190.304352 C165.814996,197.533476 162.744084,207.232265 162.884543,218.57716 C159.858093,213.412489 158.113968,207.407082 158.113968,201.000505 M183.122858,167.547869 C183.174393,172.063798 183.594762,176.451394 184.355669,180.646994 C182.486242,181.499857 180.689571,182.488127 178.994961,183.647171 C176.607147,185.281151 174.485095,187.182914 172.608595,189.300924 C171.598094,184.435362 171.020087,179.306059 170.932174,174.004971 C174.481053,171.097759 178.614002,168.88072 183.122858,167.547869 M193.000505,164 C172.59849,164 156,180.5995 156,201.000505 C156,221.402521 172.59849,238 193.000505,238 C213.402521,238 230,221.402521 230,201.000505 C230,180.5995 213.402521,164 193.000505,164" id="Fill-34" fill="#FEFEFE"></path>
                    <path d="M107,155.686719 C107.224784,156.430737 107.298751,157.227823 107.17195,158 C114.708934,155.48853 122.008646,152.499459 129,149.028453 C128.516811,148.466378 128.197887,147.761347 128.034582,147 C121.339097,150.318303 114.304515,153.219651 107,155.686719" id="Fill-36" fill="#FEFEFE"></path>
                    <path d="M153.140891,224.802415 C149.629004,225.165618 147.069783,225.252338 143.350664,225.252338 C109.599936,225.252338 79.5763753,209.4336 60.6045428,185 C60.0683539,185.248937 59.5341769,185.502976 59,185.758034 C78.2736274,210.78133 108.90279,227 143.350664,227 C147.072801,227 150.408641,226.834722 154,226.469478 C153.704241,225.918551 153.425584,225.358442 153.140891,224.802415" id="Fill-38" fill="#FEFEFE"></path>
                    <path d="M142.275862,26 C86.1794356,26 40.2851631,69.137479 38,123 C38.5680575,122.93892 39.1390996,122.894862 39.7111365,122.859816 C42.0699183,70.0096208 87.1683133,27.716247 142.275862,27.716247 C142.398228,27.716247 142.518605,27.7202523 142.640971,27.7212536 C142.248006,60.830603 100.293327,87.6887678 48.7712063,87.6887678 L48.7712063,88.6990906 C100.841488,88.6990906 143.242853,61.394341 143.643776,27.732268 C167.089331,28.03166 188.665568,35.9790654 205.823691,49.1202709 C205.501361,69.6501502 198.432974,88.2705295 185.44326,104.988418 C185.645213,105.604224 185.852142,106.207013 186.033204,106.721687 C186.108812,106.93797 186.18442,107.152251 186.260029,107.367533 C199.669569,90.2631383 207.131915,70.8967824 207.782544,50.6592859 C214.504724,56.0703705 220.480769,62.3115419 225.589307,69.1975576 C226.049921,68.8631198 226.520484,68.5427002 227,68.2463122 C208.045184,42.6888504 177.147232,26 142.275862,26" id="Fill-40" fill="#FEFEFE"></path>
                    <path d="M244.956091,110.041914 C245.804211,115.116475 246.264242,120.310789 246.264242,125.607892 C246.264242,145.198591 240.382121,163.26343 230,178.658759 C230.41646,179.071909 230.766044,179.584854 231.180477,180 C241.869624,164.272354 248,145.674612 248,125.607892 C248,120.297816 247.541995,115.090528 246.704008,110 C246.121369,110.014969 245.537717,110.020957 244.956091,110.041914" id="Fill-42" fill="#FEFEFE"></path>
                    <path d="M172,119 C167.370702,122.905758 162.364156,126.604807 157,130.061279 C157.417557,130.634212 157.684214,131.309083 157.769999,132 C158.645421,131.440282 159.516709,130.876788 160.376628,130.302911 C164.496383,127.554345 168.36705,124.684963 172,121.713643 L172,119 Z" id="Fill-44" fill="#FEFEFE"></path>
                </g>
            </g>
        </g>
    </g>
</svg>